<svg width="1536" height="384" viewBox="0 0 40640 10160" xmlns="http://www.w3.org/2000/svg" xmlns:xlink="http://www.w3.org/1999/xlink" stroke-width="28.222" stroke-linejoin="round" fill-rule="evenodd" overflow="hidden"><defs></defs><g id="MasterSlide_1_Default" visibility="visible"><rect x="0" y="0" width="40640" height="10160" stroke="none" fill="none"/></g><g id="Slide_1_page1" visibility="visible"><g id="Drawing_1"><path d="M10744 5679 1000 5679 1000 3774 20487 3774 20487 5679 10744 5679Z" stroke="none" fill="#66CCFF"/><path d="M10744 5679 1000 5679 1000 3774 20487 3774 20487 5679 10744 5679Z" stroke="#CC9900" stroke-linejoin="round" fill="none"/><g stroke="none" fill="#000000" font-family="Arial embedded" font-style="normal" font-weight="400" font-size="635"><text x="9738" y="4947"><tspan x="9738 10195 10691 11042 11397">HGene</tspan></text></g></g><g id="Drawing_2"><path d="M30064 5679 20487 5679 20487 3774 39640 3774 39640 5679 30064 5679Z" stroke="none" fill="#9999FF"/><path d="M30064 5679 20487 5679 20487 3774 39640 3774 39640 5679 30064 5679Z" stroke="#808080" stroke-linejoin="round" fill="none"/><g stroke="none" fill="#000000" font-family="Arial embedded" font-style="normal" font-weight="400" font-size="635"><text x="29092" y="4947"><tspan x="29092 29481 29973 30328 30680">TGene</tspan></text></g></g><g id="Drawing_3"><path d="M1000 2250 5153 2250" stroke="#FF33FF" stroke-width="212" stroke-linejoin="round" fill="none"/><path d="M6080 2250 5153 1941 5153 2559 6080 2250Z" stroke="none" fill="#FF33FF"/><g stroke="none" fill="#000000" font-family="Arial embedded" font-style="normal" font-weight="400" font-size="635"><text x="3100" y="2471"><tspan x="3100 3557">DP</tspan></text></g></g><g id="Drawing_4"><path d="M39600 7900 35447 7900" stroke="#FF00CC" stroke-width="212" stroke-linejoin="round" fill="none"/><path d="M34520 7900 35447 8209 35447 7591 34520 7900Z" stroke="none" fill="#FF00CC"/><g stroke="none" fill="#000000" font-family="Arial embedded" font-style="normal" font-weight="400" font-size="635"><g transform="matrix(-1 1.22465e-16 -1.22465e-16 -1 75002 15360)"><text x="37501" y="7680"><tspan x="37501 37958">DP</tspan></text></g></g></g><g id="Drawing_5"><path d="M28610 2885 32763 2885" stroke="#00CC00" stroke-width="212" stroke-linejoin="round" fill="none"/><path d="M33690 2885 32763 2576 32763 3194 33690 2885Z" stroke="none" fill="#00CC00"/><g stroke="none" fill="#000000" font-family="Arial embedded" font-style="normal" font-weight="400" font-size="635"><text x="30128" y="3106"><tspan x="30128 30585 30941 31152 31682 32033">Normal</tspan></text></g></g><g id="Drawing_6"><path d="M38262 6695 34109 6695" stroke="#00CC00" stroke-width="212" stroke-linejoin="round" fill="none"/><path d="M33182 6695 34109 7004 34109 6386 33182 6695Z" stroke="none" fill="#00CC00"/><g stroke="none" fill="#000000" font-family="Arial embedded" font-style="normal" font-weight="400" font-size="635"><g transform="matrix(-1 1.22465e-16 -1.22465e-16 -1 73490 12950)"><text x="36745" y="6475"><tspan x="36745 37202 37558 37769 38299 38650">Normal</tspan></text></g></g></g><g id="Drawing_7"><path d="M18653 3266 22806 3266" stroke="#CC9900" stroke-width="212" stroke-linejoin="round" fill="none"/><path d="M23733 3266 22806 2957 22806 3575 23733 3266Z" stroke="none" fill="#CC9900"/><g stroke="none" fill="#000000" font-family="Arial embedded" font-style="normal" font-weight="400" font-size="635"><text x="20753" y="3487"><tspan x="20753 21176">SR</tspan></text></g></g><g id="Drawing_8"><path d="M22463 6187 18310 6187" stroke="#999966" stroke-width="212" stroke-linejoin="round" fill="none"/><path d="M17383 6187 18310 6496 18310 5878 17383 6187Z" stroke="none" fill="#999966"/><g stroke="none" fill="#000000" font-family="Arial embedded" font-style="normal" font-weight="400" font-size="635"><g transform="matrix(-1 1.22465e-16 -1.22465e-16 -1 40728 11934)"><text x="20364" y="5967"><tspan x="20364 20787">SR</tspan></text></g></g></g></g></svg>